<svg xmlns="http://www.w3.org/2000/svg" viewBox="0 0 200 200">
  <polygon id="star" fill="#92400e" points="100,0,108.52749120867178,13.418928779518865,119.50903220161283,1.9214719596769498,125.25476692113823,16.746190791297835,138.26834323650897,7.612046748871322,141.0115161038618,23.272850001693115,155.55702330196021,16.85303876974548,155.19221572223717,32.748090557441884,170.71067811865476,29.289321881345245,167.25190944255812,44.80778427776284,183.14696123025453,44.44297669803977,176.72714999830688,58.98848389613819,192.3879532511287,61.73165676349102,183.2538092087022,74.74523307886177,198.07852804032305,80.49096779838717,186.58107122048114,91.47250879132821,200,100,186.58107122048114,108.52749120867178,198.07852804032305,119.50903220161283,183.2538092087022,125.25476692113821,192.3879532511287,138.26834323650897,176.72714999830688,141.0115161038618,183.14696123025453,155.5570233019602,167.25190944255814,155.19221572223717,170.71067811865476,170.71067811865476,155.19221572223717,167.25190944255812,155.55702330196021,183.14696123025453,141.01151610386182,176.72714999830688,138.268343236509,192.3879532511287,125.25476692113823,183.25380920870217,119.50903220161285,198.07852804032305,108.52749120867179,186.58107122048114,100.00000000000001,200,91.47250879132822,186.58107122048114,80.49096779838716,198.07852804032305,74.7452330788618,183.2538092087022,61.73165676349103,192.3879532511287,58.988483896138206,176.72714999830688,44.44297669803981,183.14696123025453,44.80778427776286,167.25190944255814,29.28932188134526,170.71067811865476,32.74809055744191,155.1922157222372,16.85303876974548,155.55702330196021,23.272850001693115,141.01151610386182,7.61204674887135,138.26834323650903,16.746190791297835,125.25476692113824,1.921471959676964,119.50903220161287,13.418928779518865,108.52749120867176,0,100.00000000000001,13.418928779518865,91.47250879132827,1.9214719596769498,80.49096779838717,16.74619079129782,74.7452330788618,7.612046748871336,61.731656763491,23.272850001693115,58.98848389613821,16.853038769745453,44.442976698039814,32.748090557441884,44.807784277762835,29.28932188134523,29.28932188134526,44.807784277762806,32.74809055744193,44.442976698039786,16.85303876974548,58.98848389613818,23.27285000169313,61.73165676349096,7.61204674887135,74.74523307886176,16.746190791297835,80.49096779838713,1.921471959676964,91.47250879132824,13.418928779518865"></polygon>
</svg>